# xmcd
#
# Track frame offsets:
#	150
#	48171
#	54589
#	65882
#	72255
#	77679
#	89045
#	105319
#	136531
#	146285
#	157363
#	173882
#	201942
#	231489
#	249881
#
# Disc length: 3639 seconds
#
# Revision: 1
# Processed by: cddbd v1.5.1PL0 Copyright (c) Steve Scherf et al.
# Submitted via: EasyCDDAExtractor 5.1.0
#
DISCID=d30e350f
DTITLE=Metallica - The Palace Auburn Hills 23-02-97 Disc 2
DYEAR=1997
DGENRE=Metal
TTITLE0=Fade To Black
TTITLE1=Ride The Lightning
TTITLE2=No Remorse
TTITLE3=Hit The Lights
TTITLE4=Four Horsemen
TTITLE5=Seek And Destroy
TTITLE6=Fight Fire With Fire
TTITLE7=Crowd
TTITLE8=God Of Thunder Snippet
TTITLE9=So What
TTITLE10=Master Of Puppets
TTITLE11=Enter Sandman
TTITLE12=Crowd
TTITLE13=Breadfan
TTITLE14=Overkill
EXTD=
EXTT0=
EXTT1=
EXTT2=
EXTT3=
EXTT4=
EXTT5=
EXTT6=
EXTT7=
EXTT8=
EXTT9=
EXTT10=
EXTT11=
EXTT12=
EXTT13=
EXTT14=
PLAYORDER=
